<svg width="16" height="16" viewBox="0 0 16 16" fill="none" xmlns="http://www.w3.org/2000/svg">
<path d="M6 7C6 7.55228 5.55228 8 5 8C4.44772 8 4 7.55228 4 7C4 6.44772 4.44772 6 5 6C5.55228 6 6 6.44772 6 7Z" fill="#C5C5C5"/>
<path d="M9 7C9 7.55228 8.55228 8 8 8C7.44772 8 7 7.55228 7 7C7 6.44772 7.44772 6 8 6C8.55228 6 9 6.44772 9 7Z" fill="#C5C5C5"/>
<path d="M11 8C11.5523 8 12 7.55228 12 7C12 6.44772 11.5523 6 11 6C10.4477 6 10 6.44772 10 7C10 7.55228 10.4477 8 11 8Z" fill="#C5C5C5"/>
<path fill-rule="evenodd" clip-rule="evenodd" d="M8.75 12H12C13.6569 12 15 10.6569 15 9V5C15 3.34315 13.6569 2 12 2H4C2.34315 2 1 3.34315 1 5V9C1 10.6569 2.34315 12 4 12H5V13.9597C5 14.3789 5.48497 14.612 5.81235 14.3501L8.75 12ZM12 3H4C2.89543 3 2 3.89543 2 5V9C2 10.1046 2.89543 11 4 11H12C13.1046 11 14 10.1046 14 9V5C14 3.89543 13.1046 3 12 3Z" fill="#C5C5C5"/>
</svg>
